<group>
ampeg_release=0
ampeg_attack=0
amp_veltrack=100

<region>
lovel=0
hivel=25
sample=wav/35/000.wav
key=35
bend_up=1200
bend_down=1200
bend_step=10

<region>
lovel=26
hivel=51
sample=wav/35/001.wav
key=35
bend_up=1200
bend_down=1200
bend_step=10

<region>
lovel=52
hivel=77
sample=wav/35/002.wav
key=35
bend_up=1200
bend_down=1200
bend_step=10

<region>
lovel=78
hivel=103
sample=wav/35/003.wav
key=35
bend_up=1200
bend_down=1200
bend_step=10

<region>
lovel=104
hivel=129
sample=wav/35/004.wav
key=35
bend_up=1200
bend_down=1200
bend_step=10

<region>
lovel=0
hivel=25
sample=wav/36/000.wav
key=36
bend_up=1200
bend_down=1200
bend_step=10

<region>
lovel=26
hivel=51
sample=wav/36/001.wav
key=36
bend_up=1200
bend_down=1200
bend_step=10

<region>
lovel=52
hivel=77
sample=wav/36/002.wav
key=36
bend_up=1200
bend_down=1200
bend_step=10

<region>
lovel=78
hivel=103
sample=wav/36/003.wav
key=36
bend_up=1200
bend_down=1200
bend_step=10

<region>
lovel=104
hivel=129
sample=wav/36/004.wav
key=36
bend_up=1200
bend_down=1200
bend_step=10

<region>
lovel=0
hivel=25
sample=wav/37/000.wav
key=37
bend_up=1200
bend_down=1200
bend_step=10

<region>
lovel=26
hivel=51
sample=wav/37/001.wav
key=37
bend_up=1200
bend_down=1200
bend_step=10

<region>
lovel=52
hivel=77
sample=wav/37/002.wav
key=37
bend_up=1200
bend_down=1200
bend_step=10

<region>
lovel=78
hivel=103
sample=wav/37/003.wav
key=37
bend_up=1200
bend_down=1200
bend_step=10

<region>
lovel=104
hivel=129
sample=wav/37/004.wav
key=37
bend_up=1200
bend_down=1200
bend_step=10

<region>
lovel=0
hivel=7
sample=wav/38/000.wav
key=38
bend_up=1200
bend_down=1200
bend_step=10

<region>
lovel=8
hivel=15
sample=wav/38/001.wav
key=38
bend_up=1200
bend_down=1200
bend_step=10

<region>
lovel=16
hivel=23
sample=wav/38/002.wav
key=38
bend_up=1200
bend_down=1200
bend_step=10

<region>
lovel=24
hivel=31
sample=wav/38/003.wav
key=38
bend_up=1200
bend_down=1200
bend_step=10

<region>
lovel=32
hivel=39
sample=wav/38/004.wav
key=38
bend_up=1200
bend_down=1200
bend_step=10

<region>
lovel=40
hivel=47
sample=wav/38/005.wav
key=38
bend_up=1200
bend_down=1200
bend_step=10

<region>
lovel=48
hivel=55
sample=wav/38/006.wav
key=38
bend_up=1200
bend_down=1200
bend_step=10

<region>
lovel=56
hivel=63
sample=wav/38/007.wav
key=38
bend_up=1200
bend_down=1200
bend_step=10

<region>
lovel=64
hivel=71
sample=wav/38/008.wav
key=38
bend_up=1200
bend_down=1200
bend_step=10

<region>
lovel=72
hivel=79
sample=wav/38/009.wav
key=38
bend_up=1200
bend_down=1200
bend_step=10

<region>
lovel=80
hivel=87
sample=wav/38/010.wav
key=38
bend_up=1200
bend_down=1200
bend_step=10

<region>
lovel=88
hivel=95
sample=wav/38/011.wav
key=38
bend_up=1200
bend_down=1200
bend_step=10

<region>
lovel=96
hivel=103
sample=wav/38/012.wav
key=38
bend_up=1200
bend_down=1200
bend_step=10

<region>
lovel=104
hivel=111
sample=wav/38/013.wav
key=38
bend_up=1200
bend_down=1200
bend_step=10

<region>
lovel=112
hivel=119
sample=wav/38/014.wav
key=38
bend_up=1200
bend_down=1200
bend_step=10

<region>
lovel=120
hivel=127
sample=wav/38/015.wav
key=38
bend_up=1200
bend_down=1200
bend_step=10

<region>
lovel=0
hivel=25
sample=wav/39/000.wav
key=39
bend_up=1200
bend_down=1200
bend_step=10

<region>
lovel=26
hivel=51
sample=wav/39/001.wav
key=39
bend_up=1200
bend_down=1200
bend_step=10

<region>
lovel=52
hivel=77
sample=wav/39/002.wav
key=39
bend_up=1200
bend_down=1200
bend_step=10

<region>
lovel=78
hivel=103
sample=wav/39/003.wav
key=39
bend_up=1200
bend_down=1200
bend_step=10

<region>
lovel=104
hivel=129
sample=wav/39/004.wav
key=39
bend_up=1200
bend_down=1200
bend_step=10

<region>
lovel=0
hivel=7
sample=wav/40/000.wav
key=40
bend_up=1200
bend_down=1200
bend_step=10

<region>
lovel=8
hivel=15
sample=wav/40/001.wav
key=40
bend_up=1200
bend_down=1200
bend_step=10

<region>
lovel=16
hivel=23
sample=wav/40/002.wav
key=40
bend_up=1200
bend_down=1200
bend_step=10

<region>
lovel=24
hivel=31
sample=wav/40/003.wav
key=40
bend_up=1200
bend_down=1200
bend_step=10

<region>
lovel=32
hivel=39
sample=wav/40/004.wav
key=40
bend_up=1200
bend_down=1200
bend_step=10

<region>
lovel=40
hivel=47
sample=wav/40/005.wav
key=40
bend_up=1200
bend_down=1200
bend_step=10

<region>
lovel=48
hivel=55
sample=wav/40/006.wav
key=40
bend_up=1200
bend_down=1200
bend_step=10

<region>
lovel=56
hivel=63
sample=wav/40/007.wav
key=40
bend_up=1200
bend_down=1200
bend_step=10

<region>
lovel=64
hivel=71
sample=wav/40/008.wav
key=40
bend_up=1200
bend_down=1200
bend_step=10

<region>
lovel=72
hivel=79
sample=wav/40/009.wav
key=40
bend_up=1200
bend_down=1200
bend_step=10

<region>
lovel=80
hivel=87
sample=wav/40/010.wav
key=40
bend_up=1200
bend_down=1200
bend_step=10

<region>
lovel=88
hivel=95
sample=wav/40/011.wav
key=40
bend_up=1200
bend_down=1200
bend_step=10

<region>
lovel=96
hivel=103
sample=wav/40/012.wav
key=40
bend_up=1200
bend_down=1200
bend_step=10

<region>
lovel=104
hivel=111
sample=wav/40/013.wav
key=40
bend_up=1200
bend_down=1200
bend_step=10

<region>
lovel=112
hivel=119
sample=wav/40/014.wav
key=40
bend_up=1200
bend_down=1200
bend_step=10

<region>
lovel=120
hivel=127
sample=wav/40/015.wav
key=40
bend_up=1200
bend_down=1200
bend_step=10

<region>
lovel=0
hivel=25
sample=wav/42/000.wav
key=42
bend_up=1200
bend_down=1200
bend_step=10

<region>
lovel=26
hivel=51
sample=wav/42/001.wav
key=42
bend_up=1200
bend_down=1200
bend_step=10

<region>
lovel=52
hivel=77
sample=wav/42/002.wav
key=42
bend_up=1200
bend_down=1200
bend_step=10

<region>
lovel=78
hivel=103
sample=wav/42/003.wav
key=42
bend_up=1200
bend_down=1200
bend_step=10

<region>
lovel=104
hivel=129
sample=wav/42/004.wav
key=42
bend_up=1200
bend_down=1200
bend_step=10

<region>
lovel=0
hivel=25
sample=wav/44/000.wav
key=44
bend_up=1200
bend_down=1200
bend_step=10

<region>
lovel=26
hivel=51
sample=wav/44/001.wav
key=44
bend_up=1200
bend_down=1200
bend_step=10

<region>
lovel=52
hivel=77
sample=wav/44/002.wav
key=44
bend_up=1200
bend_down=1200
bend_step=10

<region>
lovel=78
hivel=103
sample=wav/44/003.wav
key=44
bend_up=1200
bend_down=1200
bend_step=10

<region>
lovel=104
hivel=129
sample=wav/44/004.wav
key=44
bend_up=1200
bend_down=1200
bend_step=10

<region>
lovel=0
hivel=25
sample=wav/46/000.wav
key=46
bend_up=1200
bend_down=1200
bend_step=10

<region>
lovel=26
hivel=51
sample=wav/46/001.wav
key=46
bend_up=1200
bend_down=1200
bend_step=10

<region>
lovel=52
hivel=77
sample=wav/46/002.wav
key=46
bend_up=1200
bend_down=1200
bend_step=10

<region>
lovel=78
hivel=103
sample=wav/46/003.wav
key=46
bend_up=1200
bend_down=1200
bend_step=10

<region>
lovel=104
hivel=129
sample=wav/46/004.wav
key=46
bend_up=1200
bend_down=1200
bend_step=10

<region>
lovel=0
hivel=25
sample=wav/51/000.wav
key=51
bend_up=1200
bend_down=1200
bend_step=10

<region>
lovel=26
hivel=51
sample=wav/51/001.wav
key=51
bend_up=1200
bend_down=1200
bend_step=10

<region>
lovel=52
hivel=77
sample=wav/51/002.wav
key=51
bend_up=1200
bend_down=1200
bend_step=10

<region>
lovel=78
hivel=103
sample=wav/51/003.wav
key=51
bend_up=1200
bend_down=1200
bend_step=10

<region>
lovel=104
hivel=129
sample=wav/51/004.wav
key=51
bend_up=1200
bend_down=1200
bend_step=10

<region>
lovel=0
hivel=25
sample=wav/53/000.wav
key=53
bend_up=1200
bend_down=1200
bend_step=10

<region>
lovel=26
hivel=51
sample=wav/53/001.wav
key=53
bend_up=1200
bend_down=1200
bend_step=10

<region>
lovel=52
hivel=77
sample=wav/53/002.wav
key=53
bend_up=1200
bend_down=1200
bend_step=10

<region>
lovel=78
hivel=103
sample=wav/53/003.wav
key=53
bend_up=1200
bend_down=1200
bend_step=10

<region>
lovel=104
hivel=129
sample=wav/53/004.wav
key=53
bend_up=1200
bend_down=1200
bend_step=10

<region>
lovel=0
hivel=25
sample=wav/55/000.wav
key=55
bend_up=1200
bend_down=1200
bend_step=10

<region>
lovel=26
hivel=51
sample=wav/55/001.wav
key=55
bend_up=1200
bend_down=1200
bend_step=10

<region>
lovel=52
hivel=77
sample=wav/55/002.wav
key=55
bend_up=1200
bend_down=1200
bend_step=10

<region>
lovel=78
hivel=103
sample=wav/55/003.wav
key=55
bend_up=1200
bend_down=1200
bend_step=10

<region>
lovel=104
hivel=129
sample=wav/55/004.wav
key=55
bend_up=1200
bend_down=1200
bend_step=10

